<svg xmlns="http://www.w3.org/2000/svg" viewBox="0 0 300 400">
  <defs>
    <linearGradient id="cloudsky" x1="0%" y1="0%" x2="0%" y2="100%">
      <stop offset="0%" style="stop-color:#74b9ff"/>
      <stop offset="100%" style="stop-color:#a29bfe"/>
    </linearGradient>
  </defs>
  <rect width="300" height="400" fill="url(#cloudsky)"/>
  <g fill="#fff" opacity="0.9">
    <ellipse cx="80" cy="320" rx="50" ry="30"/>
    <ellipse cx="60" cy="310" rx="30" ry="25"/>
    <ellipse cx="110" cy="310" rx="35" ry="25"/>
    <ellipse cx="220" cy="350" rx="60" ry="35"/>
    <ellipse cx="190" cy="340" rx="35" ry="28"/>
    <ellipse cx="260" cy="340" rx="40" ry="25"/>
  </g>
  <g fill="#dfe6e9">
    <rect x="120" y="100" width="60" height="120" rx="5"/>
    <rect x="110" y="90" width="80" height="20" rx="3"/>
    <rect x="140" y="70" width="20" height="30"/>
    <polygon points="150,50 130,70 170,70"/>
    <rect x="130" y="120" width="15" height="20" fill="#74b9ff"/>
    <rect x="155" y="120" width="15" height="20" fill="#74b9ff"/>
    <rect x="130" y="150" width="15" height="20" fill="#74b9ff"/>
    <rect x="155" y="150" width="15" height="20" fill="#74b9ff"/>
    <rect x="140" y="180" width="20" height="40" fill="#8b4513"/>
  </g>
</svg>
